<svg width="284" height="85" viewBox="0 0 284 85" fill="none" xmlns="http://www.w3.org/2000/svg">
<path d="M13.8125 19.0938H10.2812V16.6094H13.0938C13.9167 16.6094 14.5833 16.4844 15.0938 16.2344C15.6042 15.974 15.9792 15.6094 16.2188 15.1406C16.4583 14.6719 16.5781 14.1198 16.5781 13.4844C16.5781 12.9635 16.4427 12.4844 16.1719 12.0469C15.9115 11.6094 15.5052 11.2604 14.9531 11C14.401 10.7292 13.6979 10.5938 12.8438 10.5938C12.1979 10.5938 11.6094 10.7083 11.0781 10.9375C10.5469 11.1667 10.125 11.4896 9.8125 11.9062C9.5 12.3125 9.34375 12.8073 9.34375 13.3906H4.67188C4.67188 12.3906 4.88542 11.4948 5.3125 10.7031C5.75 9.90104 6.34375 9.22396 7.09375 8.67188C7.85417 8.10938 8.72917 7.68229 9.71875 7.39062C10.7083 7.09896 11.75 6.95312 12.8438 6.95312C14.125 6.95312 15.2812 7.09375 16.3125 7.375C17.3438 7.64583 18.2292 8.05208 18.9688 8.59375C19.7083 9.13542 20.276 9.80729 20.6719 10.6094C21.0677 11.4115 21.2656 12.3438 21.2656 13.4062C21.2656 14.1875 21.0885 14.9219 20.7344 15.6094C20.3802 16.2969 19.875 16.901 19.2188 17.4219C18.5625 17.9427 17.776 18.3542 16.8594 18.6562C15.9427 18.9479 14.9271 19.0938 13.8125 19.0938ZM10.2812 17.7344H13.8125C15.0521 17.7344 16.151 17.8646 17.1094 18.125C18.0781 18.3854 18.8958 18.7656 19.5625 19.2656C20.2396 19.7656 20.75 20.3854 21.0938 21.125C21.4479 21.8542 21.625 22.6927 21.625 23.6406C21.625 24.7031 21.4062 25.6458 20.9688 26.4688C20.5417 27.2917 19.9323 27.9896 19.1406 28.5625C18.3594 29.1354 17.4323 29.5677 16.3594 29.8594C15.2969 30.151 14.125 30.2969 12.8438 30.2969C11.8229 30.2969 10.8073 30.1719 9.79688 29.9219C8.78646 29.6615 7.86979 29.2656 7.04688 28.7344C6.22396 28.2031 5.56771 27.5208 5.07812 26.6875C4.58854 25.8542 4.34375 24.8542 4.34375 23.6875H9.04688C9.04688 24.2396 9.20833 24.7448 9.53125 25.2031C9.85417 25.651 10.3021 26.0104 10.875 26.2812C11.4479 26.5417 12.1042 26.6719 12.8438 26.6719C13.7083 26.6719 14.4427 26.5365 15.0469 26.2656C15.6615 25.9948 16.125 25.625 16.4375 25.1562C16.7604 24.6771 16.9219 24.151 16.9219 23.5781C16.9219 22.9635 16.8385 22.4427 16.6719 22.0156C16.5052 21.5885 16.2604 21.2396 15.9375 20.9688C15.6146 20.6875 15.2135 20.4844 14.7344 20.3594C14.2656 20.2344 13.7188 20.1719 13.0938 20.1719H10.2812V17.7344ZM34.3438 11.1406L28.1562 30H23.1719L31.625 7.25H34.7969L34.3438 11.1406ZM39.4844 30L33.2812 11.1406L32.7812 7.25H35.9844L44.4844 30H39.4844ZM39.2031 21.5312V25.2031H27.1875V21.5312H39.2031ZM58.6875 21.7344H52.5L50.9219 21.0781C49.1406 20.5156 47.776 19.6719 46.8281 18.5469C45.8906 17.4219 45.4219 15.9896 45.4219 14.25C45.4219 12.7188 45.7604 11.4375 46.4375 10.4062C47.125 9.36458 48.0938 8.57812 49.3438 8.04688C50.6042 7.51562 52.099 7.25 53.8281 7.25H61.7656V30H57.0625V10.9219H53.8281C52.5469 10.9219 51.6042 11.2396 51 11.875C50.3958 12.5104 50.0938 13.4115 50.0938 14.5781C50.0938 15.4323 50.2344 16.1354 50.5156 16.6875C50.7969 17.2292 51.2083 17.6354 51.75 17.9062C52.2917 18.1667 52.974 18.2969 53.7969 18.2969H58.6719L58.6875 21.7344ZM54.1719 19.8438L49.125 30H44.0469L49.1094 19.8438H54.1719ZM74.5 20.0156H68.6562L68.625 16.7969H73.5312C74.3958 16.7969 75.1042 16.6875 75.6562 16.4688C76.2083 16.2396 76.6198 15.9115 76.8906 15.4844C77.1719 15.0469 77.3125 14.5156 77.3125 13.8906C77.3125 13.1823 77.1771 12.6094 76.9062 12.1719C76.6458 11.7344 76.2344 11.4167 75.6719 11.2188C75.1198 11.0208 74.4062 10.9219 73.5312 10.9219H70.2812V30H65.5938V7.25H73.5312C74.8542 7.25 76.0365 7.375 77.0781 7.625C78.1302 7.875 79.0208 8.25521 79.75 8.76562C80.4792 9.27604 81.0365 9.92188 81.4219 10.7031C81.8073 11.474 82 12.3906 82 13.4531C82 14.3906 81.7865 15.2552 81.3594 16.0469C80.9427 16.8385 80.2812 17.4844 79.375 17.9844C78.4792 18.4844 77.3073 18.7604 75.8594 18.8125L74.5 20.0156ZM74.2969 30H67.375L69.2031 26.3438H74.2969C75.1198 26.3438 75.7917 26.2135 76.3125 25.9531C76.8333 25.6823 77.2188 25.3177 77.4688 24.8594C77.7188 24.401 77.8438 23.875 77.8438 23.2812C77.8438 22.6146 77.7292 22.0365 77.5 21.5469C77.2812 21.0573 76.9271 20.6823 76.4375 20.4219C75.9479 20.151 75.3021 20.0156 74.5 20.0156H69.9844L70.0156 16.7969H75.6406L76.7188 18.0625C78.1042 18.0417 79.2188 18.2865 80.0625 18.7969C80.9167 19.2969 81.5365 19.9479 81.9219 20.75C82.3177 21.5521 82.5156 22.4115 82.5156 23.3281C82.5156 24.7865 82.1979 26.0156 81.5625 27.0156C80.9271 28.0052 79.9948 28.75 78.7656 29.25C77.5469 29.75 76.0573 30 74.2969 30ZM90.7344 7.25V30H86.0469V7.25H90.7344ZM104.141 7.25L95.4219 20.6094H89.6875L89.0938 16.4375H92.9219L98.4531 7.25H104.141ZM99.3125 30L92.9375 19.8281L96.1875 16.4844L104.875 30H99.3125ZM115.969 11.1406L109.781 30H104.797L113.25 7.25H116.422L115.969 11.1406ZM121.109 30L114.906 11.1406L114.406 7.25H117.609L126.109 30H121.109ZM120.828 21.5312V25.2031H108.812V21.5312H120.828ZM154.719 7.25V30H150.031V10.9219H140.891V30H136.203V7.25H154.719ZM167.672 21.8906H161.875V18.2344H167.672C168.568 18.2344 169.297 18.0885 169.859 17.7969C170.422 17.4948 170.833 17.0781 171.094 16.5469C171.354 16.0156 171.484 15.4167 171.484 14.75C171.484 14.0729 171.354 13.4427 171.094 12.8594C170.833 12.276 170.422 11.8073 169.859 11.4531C169.297 11.099 168.568 10.9219 167.672 10.9219H163.5V30H158.812V7.25H167.672C169.453 7.25 170.979 7.57292 172.25 8.21875C173.531 8.85417 174.51 9.73438 175.188 10.8594C175.865 11.9844 176.203 13.2708 176.203 14.7188C176.203 16.1875 175.865 17.4583 175.188 18.5312C174.51 19.6042 173.531 20.4323 172.25 21.0156C170.979 21.599 169.453 21.8906 167.672 21.8906ZM183.953 22.625L193.094 7.25H197.781V30H193.094V14.625L183.953 30H179.266V7.25H183.953V22.625ZM217.016 16.5156V20.1719H205.141V16.5156H217.016ZM206.531 7.25V30H201.844V7.25H206.531ZM220.359 7.25V30H215.688V7.25H220.359ZM236.531 21.7344H230.344L228.766 21.0781C226.984 20.5156 225.62 19.6719 224.672 18.5469C223.734 17.4219 223.266 15.9896 223.266 14.25C223.266 12.7188 223.604 11.4375 224.281 10.4062C224.969 9.36458 225.938 8.57812 227.188 8.04688C228.448 7.51562 229.943 7.25 231.672 7.25H239.609V30H234.906V10.9219H231.672C230.391 10.9219 229.448 11.2396 228.844 11.875C228.24 12.5104 227.938 13.4115 227.938 14.5781C227.938 15.4323 228.078 16.1354 228.359 16.6875C228.641 17.2292 229.052 17.6354 229.594 17.9062C230.135 18.1667 230.818 18.2969 231.641 18.2969H236.516L236.531 21.7344ZM232.016 19.8438L226.969 30H221.891L226.953 19.8438H232.016ZM253.266 7.25V30H248.594V7.25H253.266ZM260.266 7.25V10.9219H241.703V7.25H260.266ZM270.5 11.1406L264.312 30H259.328L267.781 7.25H270.953L270.5 11.1406ZM275.641 30L269.438 11.1406L268.938 7.25H272.141L280.641 30H275.641ZM275.359 21.5312V25.2031H263.344V21.5312H275.359Z" fill="black"/>
<path d="M54.4863 64.9268V66H46.9531V64.9268H54.4863ZM47.165 64.9268V68.4473H45.8594L45.8525 64.9268H47.165ZM55.6348 64.9268L55.6211 68.4404H54.3154V64.9268H55.6348ZM53.1943 56.0469V57.127H48.833V56.0469H53.1943ZM54.3291 56.0469V66H53.0166V56.0469H54.3291ZM48.3818 56.0469H49.7012L49.4961 60.0527C49.4688 60.6543 49.4118 61.2103 49.3252 61.7207C49.2386 62.2266 49.1315 62.6891 49.0039 63.1084C48.8763 63.5277 48.7305 63.9036 48.5664 64.2363C48.4023 64.5645 48.2269 64.8493 48.04 65.0908C47.8532 65.3278 47.6572 65.5238 47.4521 65.6787C47.2516 65.8291 47.0488 65.9362 46.8438 66H46.2422V64.9268H46.666C46.7845 64.7992 46.9189 64.6146 47.0693 64.373C47.2243 64.1315 47.377 63.8193 47.5273 63.4365C47.6823 63.0492 47.8167 62.5775 47.9307 62.0215C48.0492 61.4655 48.1289 60.8092 48.1699 60.0527L48.3818 56.0469ZM60.0645 66.1367C59.5495 66.1367 59.0824 66.0501 58.6631 65.877C58.2484 65.6992 57.8906 65.4508 57.5898 65.1318C57.2936 64.8128 57.0658 64.4346 56.9062 63.9971C56.7467 63.5596 56.667 63.0811 56.667 62.5615V62.2744C56.667 61.6729 56.7559 61.1374 56.9336 60.668C57.1113 60.194 57.3529 59.793 57.6582 59.4648C57.9635 59.1367 58.3099 58.8883 58.6973 58.7197C59.0846 58.5511 59.4857 58.4668 59.9004 58.4668C60.429 58.4668 60.8848 58.5579 61.2676 58.7402C61.6549 58.9225 61.9717 59.1777 62.2178 59.5059C62.4639 59.8294 62.6462 60.2122 62.7646 60.6543C62.8831 61.0918 62.9424 61.5703 62.9424 62.0898V62.6572H57.4189V61.625H61.6777V61.5293C61.6595 61.2012 61.5911 60.8822 61.4727 60.5723C61.3587 60.2624 61.1764 60.0072 60.9258 59.8066C60.6751 59.6061 60.3333 59.5059 59.9004 59.5059C59.6133 59.5059 59.349 59.5674 59.1074 59.6904C58.8659 59.8089 58.6585 59.9867 58.4854 60.2236C58.3122 60.4606 58.1777 60.75 58.082 61.0918C57.9863 61.4336 57.9385 61.8278 57.9385 62.2744V62.5615C57.9385 62.9124 57.9863 63.2428 58.082 63.5527C58.1823 63.8581 58.3258 64.127 58.5127 64.3594C58.7041 64.5918 58.9342 64.7741 59.2031 64.9062C59.4766 65.0384 59.7865 65.1045 60.1328 65.1045C60.5794 65.1045 60.9577 65.0133 61.2676 64.8311C61.5775 64.6488 61.8486 64.4049 62.0811 64.0996L62.8467 64.708C62.6872 64.9495 62.4844 65.1797 62.2383 65.3984C61.9922 65.6172 61.6891 65.7949 61.3291 65.9316C60.9736 66.0684 60.5521 66.1367 60.0645 66.1367ZM65.6836 60.0254V68.8438H64.4121V58.6035H65.5742L65.6836 60.0254ZM70.667 62.2402V62.3838C70.667 62.9215 70.6032 63.4206 70.4756 63.8809C70.348 64.3366 70.1611 64.7331 69.915 65.0703C69.6735 65.4076 69.375 65.6696 69.0195 65.8564C68.6641 66.0433 68.2562 66.1367 67.7959 66.1367C67.3265 66.1367 66.9118 66.0592 66.5518 65.9043C66.1917 65.7493 65.8864 65.5238 65.6357 65.2275C65.3851 64.9313 65.1846 64.5758 65.0342 64.1611C64.8883 63.7464 64.7881 63.2793 64.7334 62.7598V61.9941C64.7881 61.4473 64.8906 60.9574 65.041 60.5244C65.1914 60.0915 65.3896 59.7223 65.6357 59.417C65.8864 59.1071 66.1895 58.8724 66.5449 58.7129C66.9004 58.5488 67.3105 58.4668 67.7754 58.4668C68.2402 58.4668 68.6527 58.5579 69.0127 58.7402C69.3727 58.918 69.6758 59.1732 69.9219 59.5059C70.168 59.8385 70.3525 60.2373 70.4756 60.7021C70.6032 61.1624 70.667 61.6751 70.667 62.2402ZM69.3955 62.3838V62.2402C69.3955 61.8711 69.3568 61.5247 69.2793 61.2012C69.2018 60.873 69.0811 60.5859 68.917 60.3398C68.7575 60.0892 68.5524 59.8932 68.3018 59.752C68.0511 59.6061 67.7526 59.5332 67.4062 59.5332C67.0872 59.5332 66.8092 59.5879 66.5723 59.6973C66.3398 59.8066 66.1416 59.9548 65.9775 60.1416C65.8135 60.3239 65.679 60.5335 65.5742 60.7705C65.474 61.0029 65.3988 61.2445 65.3486 61.4951V63.2656C65.4398 63.5846 65.5674 63.8854 65.7314 64.168C65.8955 64.446 66.1143 64.6715 66.3877 64.8447C66.6611 65.0133 67.0052 65.0977 67.4199 65.0977C67.7617 65.0977 68.0557 65.027 68.3018 64.8857C68.5524 64.7399 68.7575 64.5417 68.917 64.291C69.0811 64.0404 69.2018 63.7533 69.2793 63.4297C69.3568 63.1016 69.3955 62.7529 69.3955 62.3838ZM74.4131 62.7803L71.6104 58.6035H73.1348L75.0488 61.666H76.5254L76.3408 62.7803H74.4131ZM75.1035 62.6504L72.957 66H71.3574L74.3037 61.7344L75.1035 62.6504ZM77.1748 58.6035V66H75.9102V58.6035H77.1748ZM81.4883 58.6035L78.6855 62.7803H76.7578L76.5596 61.666H78.043L79.957 58.6035H81.4883ZM80.1348 66L77.9814 62.6504L78.7949 61.7344L81.7344 66H80.1348ZM84.2705 63.9971L87.6816 58.6035H88.9531V66H87.6816V60.6064L84.2705 66H83.0127V58.6035H84.2705V63.9971ZM93.998 58.6035V66H92.7266V58.6035H93.998ZM96.4795 58.6035V59.6289H90.293V58.6035H96.4795ZM100.246 66.1367C99.7311 66.1367 99.264 66.0501 98.8447 65.877C98.43 65.6992 98.0723 65.4508 97.7715 65.1318C97.4753 64.8128 97.2474 64.4346 97.0879 63.9971C96.9284 63.5596 96.8486 63.0811 96.8486 62.5615V62.2744C96.8486 61.6729 96.9375 61.1374 97.1152 60.668C97.293 60.194 97.5345 59.793 97.8398 59.4648C98.1452 59.1367 98.4915 58.8883 98.8789 58.7197C99.2663 58.5511 99.6673 58.4668 100.082 58.4668C100.611 58.4668 101.066 58.5579 101.449 58.7402C101.837 58.9225 102.153 59.1777 102.399 59.5059C102.646 59.8294 102.828 60.2122 102.946 60.6543C103.065 61.0918 103.124 61.5703 103.124 62.0898V62.6572H97.6006V61.625H101.859V61.5293C101.841 61.2012 101.773 60.8822 101.654 60.5723C101.54 60.2624 101.358 60.0072 101.107 59.8066C100.857 59.6061 100.515 59.5059 100.082 59.5059C99.7949 59.5059 99.5306 59.5674 99.2891 59.6904C99.0475 59.8089 98.8402 59.9867 98.667 60.2236C98.4938 60.4606 98.3594 60.75 98.2637 61.0918C98.168 61.4336 98.1201 61.8278 98.1201 62.2744V62.5615C98.1201 62.9124 98.168 63.2428 98.2637 63.5527C98.3639 63.8581 98.5075 64.127 98.6943 64.3594C98.8857 64.5918 99.1159 64.7741 99.3848 64.9062C99.6582 65.0384 99.9681 65.1045 100.314 65.1045C100.761 65.1045 101.139 65.0133 101.449 64.8311C101.759 64.6488 102.03 64.4049 102.263 64.0996L103.028 64.708C102.869 64.9495 102.666 65.1797 102.42 65.3984C102.174 65.6172 101.871 65.7949 101.511 65.9316C101.155 66.0684 100.734 66.1367 100.246 66.1367ZM111.088 58.6035V66H109.816V58.6035H111.088ZM113.569 58.6035V59.6289H107.383V58.6035H113.569ZM117.336 66.1367C116.821 66.1367 116.354 66.0501 115.935 65.877C115.52 65.6992 115.162 65.4508 114.861 65.1318C114.565 64.8128 114.337 64.4346 114.178 63.9971C114.018 63.5596 113.938 63.0811 113.938 62.5615V62.2744C113.938 61.6729 114.027 61.1374 114.205 60.668C114.383 60.194 114.624 59.793 114.93 59.4648C115.235 59.1367 115.581 58.8883 115.969 58.7197C116.356 58.5511 116.757 58.4668 117.172 58.4668C117.701 58.4668 118.156 58.5579 118.539 58.7402C118.926 58.9225 119.243 59.1777 119.489 59.5059C119.735 59.8294 119.918 60.2122 120.036 60.6543C120.155 61.0918 120.214 61.5703 120.214 62.0898V62.6572H114.69V61.625H118.949V61.5293C118.931 61.2012 118.863 60.8822 118.744 60.5723C118.63 60.2624 118.448 60.0072 118.197 59.8066C117.947 59.6061 117.605 59.5059 117.172 59.5059C116.885 59.5059 116.62 59.5674 116.379 59.6904C116.137 59.8089 115.93 59.9867 115.757 60.2236C115.584 60.4606 115.449 60.75 115.354 61.0918C115.258 61.4336 115.21 61.8278 115.21 62.2744V62.5615C115.21 62.9124 115.258 63.2428 115.354 63.5527C115.454 63.8581 115.597 64.127 115.784 64.3594C115.976 64.5918 116.206 64.7741 116.475 64.9062C116.748 65.0384 117.058 65.1045 117.404 65.1045C117.851 65.1045 118.229 65.0133 118.539 64.8311C118.849 64.6488 119.12 64.4049 119.353 64.0996L120.118 64.708C119.959 64.9495 119.756 65.1797 119.51 65.3984C119.264 65.6172 118.961 65.7949 118.601 65.9316C118.245 66.0684 117.824 66.1367 117.336 66.1367ZM126.633 58.6035V59.6494H123.058V58.6035H126.633ZM127.747 58.6035V66H126.482V58.6035H127.747ZM122.75 58.6035H124.021L123.83 62.1719C123.798 62.7233 123.746 63.2109 123.673 63.6348C123.604 64.054 123.509 64.4141 123.386 64.7148C123.267 65.0156 123.117 65.2617 122.935 65.4531C122.757 65.64 122.543 65.779 122.292 65.8701C122.041 65.9567 121.752 66 121.424 66H121.027V64.8857L121.301 64.8652C121.497 64.8516 121.663 64.806 121.8 64.7285C121.941 64.651 122.06 64.5371 122.155 64.3867C122.251 64.2318 122.328 64.0335 122.388 63.792C122.451 63.5505 122.499 63.2633 122.531 62.9307C122.568 62.598 122.595 62.2106 122.613 61.7686L122.75 58.6035ZM132.854 66.1367C132.339 66.1367 131.871 66.0501 131.452 65.877C131.037 65.6992 130.68 65.4508 130.379 65.1318C130.083 64.8128 129.855 64.4346 129.695 63.9971C129.536 63.5596 129.456 63.0811 129.456 62.5615V62.2744C129.456 61.6729 129.545 61.1374 129.723 60.668C129.9 60.194 130.142 59.793 130.447 59.4648C130.753 59.1367 131.099 58.8883 131.486 58.7197C131.874 58.5511 132.275 58.4668 132.689 58.4668C133.218 58.4668 133.674 58.5579 134.057 58.7402C134.444 58.9225 134.761 59.1777 135.007 59.5059C135.253 59.8294 135.435 60.2122 135.554 60.6543C135.672 61.0918 135.731 61.5703 135.731 62.0898V62.6572H130.208V61.625H134.467V61.5293C134.449 61.2012 134.38 60.8822 134.262 60.5723C134.148 60.2624 133.965 60.0072 133.715 59.8066C133.464 59.6061 133.122 59.5059 132.689 59.5059C132.402 59.5059 132.138 59.5674 131.896 59.6904C131.655 59.8089 131.448 59.9867 131.274 60.2236C131.101 60.4606 130.967 60.75 130.871 61.0918C130.775 61.4336 130.728 61.8278 130.728 62.2744V62.5615C130.728 62.9124 130.775 63.2428 130.871 63.5527C130.971 63.8581 131.115 64.127 131.302 64.3594C131.493 64.5918 131.723 64.7741 131.992 64.9062C132.266 65.0384 132.576 65.1045 132.922 65.1045C133.368 65.1045 133.747 65.0133 134.057 64.8311C134.367 64.6488 134.638 64.4049 134.87 64.0996L135.636 64.708C135.476 64.9495 135.273 65.1797 135.027 65.3984C134.781 65.6172 134.478 65.7949 134.118 65.9316C133.763 66.0684 133.341 66.1367 132.854 66.1367ZM145.712 62.4316V62.5752C145.712 63.0947 145.655 63.5732 145.541 64.0107C145.427 64.4437 145.256 64.8197 145.028 65.1387C144.805 65.4577 144.527 65.7061 144.194 65.8838C143.862 66.057 143.477 66.1436 143.039 66.1436C142.679 66.1436 142.362 66.0957 142.089 66C141.815 65.8997 141.583 65.7562 141.392 65.5693C141.205 65.3825 141.054 65.1592 140.94 64.8994C140.831 64.6351 140.756 64.3389 140.715 64.0107V60.7295C140.756 60.3786 140.831 60.0641 140.94 59.7861C141.054 59.5081 141.205 59.2712 141.392 59.0752C141.583 58.8792 141.813 58.7288 142.082 58.624C142.351 58.5192 142.665 58.4668 143.025 58.4668C143.381 58.4668 143.7 58.5306 143.982 58.6582C144.27 58.7812 144.52 58.959 144.734 59.1914C144.953 59.4238 145.133 59.7041 145.274 60.0322C145.42 60.3558 145.53 60.7204 145.603 61.126C145.675 61.5316 145.712 61.9668 145.712 62.4316ZM144.447 62.5752V62.4316C144.447 62.1126 144.424 61.8096 144.379 61.5225C144.338 61.2308 144.272 60.9642 144.181 60.7227C144.094 60.4766 143.98 60.2624 143.839 60.0801C143.698 59.8978 143.527 59.7565 143.326 59.6562C143.13 59.556 142.905 59.5059 142.649 59.5059C142.376 59.5059 142.148 59.54 141.966 59.6084C141.788 59.6768 141.649 59.7679 141.549 59.8818C141.449 59.9912 141.376 60.1074 141.33 60.2305V64.5166C141.385 64.6169 141.465 64.7126 141.569 64.8037C141.674 64.8903 141.815 64.9632 141.993 65.0225C142.171 65.0771 142.394 65.1045 142.663 65.1045C142.982 65.1045 143.253 65.0407 143.477 64.9131C143.704 64.7809 143.889 64.5986 144.03 64.3662C144.176 64.1338 144.281 63.8649 144.345 63.5596C144.413 63.2542 144.447 62.9261 144.447 62.5752ZM136.928 62.5752V62.4316C136.928 61.9668 136.964 61.5316 137.037 61.126C137.11 60.7204 137.219 60.3558 137.365 60.0322C137.511 59.7041 137.691 59.4238 137.905 59.1914C138.124 58.959 138.375 58.7812 138.657 58.6582C138.944 58.5306 139.266 58.4668 139.621 58.4668C139.972 58.4668 140.277 58.5192 140.537 58.624C140.801 58.7288 141.025 58.8792 141.207 59.0752C141.389 59.2712 141.535 59.5081 141.645 59.7861C141.754 60.0641 141.831 60.3786 141.877 60.7295V63.8809C141.836 64.2272 141.761 64.5394 141.651 64.8174C141.542 65.0954 141.396 65.3346 141.214 65.5352C141.032 65.7311 140.806 65.8815 140.537 65.9863C140.273 66.0911 139.963 66.1436 139.607 66.1436C139.17 66.1436 138.785 66.057 138.452 65.8838C138.119 65.7061 137.839 65.4577 137.611 65.1387C137.388 64.8197 137.217 64.4437 137.099 64.0107C136.985 63.5732 136.928 63.0947 136.928 62.5752ZM138.199 62.4316V62.5752C138.199 62.9261 138.229 63.2542 138.288 63.5596C138.352 63.8649 138.45 64.1338 138.582 64.3662C138.719 64.5986 138.896 64.7809 139.115 64.9131C139.334 65.0407 139.603 65.1045 139.922 65.1045C140.195 65.1045 140.421 65.0703 140.599 65.002C140.776 64.9336 140.918 64.8447 141.022 64.7354C141.127 64.626 141.207 64.512 141.262 64.3936V60.2305C141.216 60.1074 141.141 59.9912 141.036 59.8818C140.936 59.7679 140.797 59.6768 140.619 59.6084C140.441 59.54 140.214 59.5059 139.936 59.5059C139.617 59.5059 139.345 59.5833 139.122 59.7383C138.899 59.8932 138.719 60.1051 138.582 60.374C138.45 60.6429 138.352 60.9551 138.288 61.3105C138.229 61.6615 138.199 62.0352 138.199 62.4316ZM140.633 68.8438V55.5H141.904V68.8438H140.633ZM147.031 62.3838V62.2266C147.031 61.6934 147.109 61.1989 147.264 60.7432C147.419 60.2829 147.642 59.8841 147.934 59.5469C148.225 59.2051 148.578 58.9408 148.993 58.7539C149.408 58.5625 149.873 58.4668 150.388 58.4668C150.907 58.4668 151.374 58.5625 151.789 58.7539C152.208 58.9408 152.564 59.2051 152.855 59.5469C153.152 59.8841 153.377 60.2829 153.532 60.7432C153.687 61.1989 153.765 61.6934 153.765 62.2266V62.3838C153.765 62.917 153.687 63.4115 153.532 63.8672C153.377 64.3229 153.152 64.7217 152.855 65.0635C152.564 65.4007 152.211 65.665 151.796 65.8564C151.386 66.0433 150.921 66.1367 150.401 66.1367C149.882 66.1367 149.415 66.0433 149 65.8564C148.585 65.665 148.23 65.4007 147.934 65.0635C147.642 64.7217 147.419 64.3229 147.264 63.8672C147.109 63.4115 147.031 62.917 147.031 62.3838ZM148.296 62.2266V62.3838C148.296 62.7529 148.339 63.1016 148.426 63.4297C148.512 63.7533 148.642 64.0404 148.815 64.291C148.993 64.5417 149.214 64.7399 149.479 64.8857C149.743 65.027 150.05 65.0977 150.401 65.0977C150.748 65.0977 151.051 65.027 151.311 64.8857C151.575 64.7399 151.794 64.5417 151.967 64.291C152.14 64.0404 152.27 63.7533 152.356 63.4297C152.448 63.1016 152.493 62.7529 152.493 62.3838V62.2266C152.493 61.862 152.448 61.5179 152.356 61.1943C152.27 60.8662 152.138 60.5768 151.96 60.3262C151.787 60.071 151.568 59.8704 151.304 59.7246C151.044 59.5788 150.739 59.5059 150.388 59.5059C150.041 59.5059 149.736 59.5788 149.472 59.7246C149.212 59.8704 148.993 60.071 148.815 60.3262C148.642 60.5768 148.512 60.8662 148.426 61.1943C148.339 61.5179 148.296 61.862 148.296 62.2266ZM160.368 61.8096V62.835H156.458V61.8096H160.368ZM156.725 58.6035V66H155.46V58.6035H156.725ZM161.394 58.6035V66H160.122V58.6035H161.394ZM171.832 58.6035V59.6494H168.093V58.6035H171.832ZM168.277 58.6035V66H167.013V58.6035H168.277ZM172.953 58.6035V66H171.682V58.6035H172.953ZM174.648 62.3838V62.2266C174.648 61.6934 174.726 61.1989 174.881 60.7432C175.036 60.2829 175.259 59.8841 175.551 59.5469C175.842 59.2051 176.196 58.9408 176.61 58.7539C177.025 58.5625 177.49 58.4668 178.005 58.4668C178.524 58.4668 178.992 58.5625 179.406 58.7539C179.826 58.9408 180.181 59.2051 180.473 59.5469C180.769 59.8841 180.994 60.2829 181.149 60.7432C181.304 61.1989 181.382 61.6934 181.382 62.2266V62.3838C181.382 62.917 181.304 63.4115 181.149 63.8672C180.994 64.3229 180.769 64.7217 180.473 65.0635C180.181 65.4007 179.828 65.665 179.413 65.8564C179.003 66.0433 178.538 66.1367 178.019 66.1367C177.499 66.1367 177.032 66.0433 176.617 65.8564C176.202 65.665 175.847 65.4007 175.551 65.0635C175.259 64.7217 175.036 64.3229 174.881 63.8672C174.726 63.4115 174.648 62.917 174.648 62.3838ZM175.913 62.2266V62.3838C175.913 62.7529 175.956 63.1016 176.043 63.4297C176.13 63.7533 176.259 64.0404 176.433 64.291C176.61 64.5417 176.831 64.7399 177.096 64.8857C177.36 65.027 177.668 65.0977 178.019 65.0977C178.365 65.0977 178.668 65.027 178.928 64.8857C179.192 64.7399 179.411 64.5417 179.584 64.291C179.757 64.0404 179.887 63.7533 179.974 63.4297C180.065 63.1016 180.11 62.7529 180.11 62.3838V62.2266C180.11 61.862 180.065 61.5179 179.974 61.1943C179.887 60.8662 179.755 60.5768 179.577 60.3262C179.404 60.071 179.185 59.8704 178.921 59.7246C178.661 59.5788 178.356 59.5059 178.005 59.5059C177.659 59.5059 177.353 59.5788 177.089 59.7246C176.829 59.8704 176.61 60.071 176.433 60.3262C176.259 60.5768 176.13 60.8662 176.043 61.1943C175.956 61.5179 175.913 61.862 175.913 62.2266ZM183.809 58.6035H185.073L184.964 61.3721C184.937 62.0739 184.857 62.68 184.725 63.1904C184.592 63.7008 184.424 64.1361 184.219 64.4961C184.014 64.8516 183.784 65.1501 183.528 65.3916C183.278 65.6331 183.018 65.8359 182.749 66H182.12L182.154 64.9678L182.414 64.9609C182.564 64.7832 182.71 64.6009 182.852 64.4141C182.993 64.2227 183.123 63.9971 183.241 63.7373C183.36 63.473 183.458 63.1517 183.535 62.7734C183.617 62.3906 183.67 61.9235 183.692 61.3721L183.809 58.6035ZM184.123 58.6035H188.573V66H187.309V59.7725H184.123V58.6035ZM181.833 64.9609H189.523V68.1807H188.259V66H183.098V68.1807H181.826L181.833 64.9609ZM195.662 60.0254V68.8438H194.391V58.6035H195.553L195.662 60.0254ZM200.646 62.2402V62.3838C200.646 62.9215 200.582 63.4206 200.454 63.8809C200.326 64.3366 200.14 64.7331 199.894 65.0703C199.652 65.4076 199.354 65.6696 198.998 65.8564C198.643 66.0433 198.235 66.1367 197.774 66.1367C197.305 66.1367 196.89 66.0592 196.53 65.9043C196.17 65.7493 195.865 65.5238 195.614 65.2275C195.364 64.9313 195.163 64.5758 195.013 64.1611C194.867 63.7464 194.767 63.2793 194.712 62.7598V61.9941C194.767 61.4473 194.869 60.9574 195.02 60.5244C195.17 60.0915 195.368 59.7223 195.614 59.417C195.865 59.1071 196.168 58.8724 196.523 58.7129C196.879 58.5488 197.289 58.4668 197.754 58.4668C198.219 58.4668 198.631 58.5579 198.991 58.7402C199.351 58.918 199.654 59.1732 199.9 59.5059C200.146 59.8385 200.331 60.2373 200.454 60.7021C200.582 61.1624 200.646 61.6751 200.646 62.2402ZM199.374 62.3838V62.2402C199.374 61.8711 199.335 61.5247 199.258 61.2012C199.18 60.873 199.06 60.5859 198.896 60.3398C198.736 60.0892 198.531 59.8932 198.28 59.752C198.03 59.6061 197.731 59.5332 197.385 59.5332C197.066 59.5332 196.788 59.5879 196.551 59.6973C196.318 59.8066 196.12 59.9548 195.956 60.1416C195.792 60.3239 195.658 60.5335 195.553 60.7705C195.452 61.0029 195.377 61.2445 195.327 61.4951V63.2656C195.418 63.5846 195.546 63.8854 195.71 64.168C195.874 64.446 196.093 64.6715 196.366 64.8447C196.64 65.0133 196.984 65.0977 197.398 65.0977C197.74 65.0977 198.034 65.027 198.28 64.8857C198.531 64.7399 198.736 64.5417 198.896 64.291C199.06 64.0404 199.18 63.7533 199.258 63.4297C199.335 63.1016 199.374 62.7529 199.374 62.3838ZM204.255 65.2344L206.312 58.6035H207.666L204.699 67.1416C204.631 67.3239 204.54 67.5199 204.426 67.7295C204.316 67.9437 204.175 68.1465 204.002 68.3379C203.829 68.5293 203.619 68.6842 203.373 68.8027C203.132 68.9258 202.842 68.9873 202.505 68.9873C202.405 68.9873 202.277 68.9736 202.122 68.9463C201.967 68.9189 201.858 68.8962 201.794 68.8779L201.787 67.8525C201.824 67.8571 201.881 67.8617 201.958 67.8662C202.04 67.8753 202.097 67.8799 202.129 67.8799C202.416 67.8799 202.66 67.8411 202.86 67.7637C203.061 67.6908 203.229 67.5654 203.366 67.3877C203.507 67.2145 203.628 66.9753 203.729 66.6699L204.255 65.2344ZM202.744 58.6035L204.665 64.3457L204.993 65.6787L204.084 66.1436L201.363 58.6035H202.744ZM210.182 58.6035V66H208.917V58.6035H210.182ZM215.035 58.6035L211.528 62.8418H209.758L209.566 61.7344H211.016L213.497 58.6035H215.035ZM213.675 66L210.954 62.6504L211.768 61.7344L215.281 66H213.675ZM215.896 62.3838V62.2266C215.896 61.6934 215.974 61.1989 216.129 60.7432C216.284 60.2829 216.507 59.8841 216.799 59.5469C217.09 59.2051 217.444 58.9408 217.858 58.7539C218.273 58.5625 218.738 58.4668 219.253 58.4668C219.772 58.4668 220.24 58.5625 220.654 58.7539C221.074 58.9408 221.429 59.2051 221.721 59.5469C222.017 59.8841 222.243 60.2829 222.397 60.7432C222.552 61.1989 222.63 61.6934 222.63 62.2266V62.3838C222.63 62.917 222.552 63.4115 222.397 63.8672C222.243 64.3229 222.017 64.7217 221.721 65.0635C221.429 65.4007 221.076 65.665 220.661 65.8564C220.251 66.0433 219.786 66.1367 219.267 66.1367C218.747 66.1367 218.28 66.0433 217.865 65.8564C217.451 65.665 217.095 65.4007 216.799 65.0635C216.507 64.7217 216.284 64.3229 216.129 63.8672C215.974 63.4115 215.896 62.917 215.896 62.3838ZM217.161 62.2266V62.3838C217.161 62.7529 217.204 63.1016 217.291 63.4297C217.378 63.7533 217.507 64.0404 217.681 64.291C217.858 64.5417 218.079 64.7399 218.344 64.8857C218.608 65.027 218.916 65.0977 219.267 65.0977C219.613 65.0977 219.916 65.027 220.176 64.8857C220.44 64.7399 220.659 64.5417 220.832 64.291C221.005 64.0404 221.135 63.7533 221.222 63.4297C221.313 63.1016 221.358 62.7529 221.358 62.3838V62.2266C221.358 61.862 221.313 61.5179 221.222 61.1943C221.135 60.8662 221.003 60.5768 220.825 60.3262C220.652 60.071 220.433 59.8704 220.169 59.7246C219.909 59.5788 219.604 59.5059 219.253 59.5059C218.907 59.5059 218.601 59.5788 218.337 59.7246C218.077 59.8704 217.858 60.071 217.681 60.3262C217.507 60.5768 217.378 60.8662 217.291 61.1943C217.204 61.5179 217.161 61.862 217.161 62.2266ZM225.583 63.9971L228.994 58.6035H230.266V66H228.994V60.6064L225.583 66H224.325V58.6035H225.583V63.9971ZM228.304 55.9238H229.329C229.329 56.2793 229.247 56.596 229.083 56.874C228.919 57.1475 228.684 57.3617 228.379 57.5166C228.074 57.6715 227.711 57.749 227.292 57.749C226.659 57.749 226.157 57.5804 225.788 57.2432C225.424 56.9014 225.241 56.4616 225.241 55.9238H226.267C226.267 56.1927 226.344 56.4297 226.499 56.6348C226.654 56.8398 226.918 56.9424 227.292 56.9424C227.657 56.9424 227.916 56.8398 228.071 56.6348C228.226 56.4297 228.304 56.1927 228.304 55.9238ZM232.316 65.3301C232.316 65.1159 232.382 64.9359 232.515 64.79C232.651 64.6396 232.847 64.5645 233.103 64.5645C233.358 64.5645 233.551 64.6396 233.684 64.79C233.82 64.9359 233.889 65.1159 233.889 65.3301C233.889 65.5397 233.82 65.7174 233.684 65.8633C233.551 66.0091 233.358 66.082 233.103 66.082C232.847 66.082 232.651 66.0091 232.515 65.8633C232.382 65.7174 232.316 65.5397 232.316 65.3301ZM18.96 78.835H20.2725C20.2041 79.4639 20.0241 80.0267 19.7324 80.5234C19.4408 81.0202 19.0283 81.4144 18.4951 81.7061C17.9619 81.9932 17.2965 82.1367 16.499 82.1367C15.9157 82.1367 15.3848 82.0273 14.9062 81.8086C14.4323 81.5898 14.0244 81.2799 13.6826 80.8789C13.3408 80.4733 13.0765 79.988 12.8896 79.4229C12.7074 78.8532 12.6162 78.2197 12.6162 77.5225V76.5312C12.6162 75.834 12.7074 75.2028 12.8896 74.6377C13.0765 74.068 13.3431 73.5804 13.6895 73.1748C14.0404 72.7692 14.4619 72.457 14.9541 72.2383C15.4463 72.0195 16 71.9102 16.6152 71.9102C17.3672 71.9102 18.0029 72.0514 18.5225 72.334C19.042 72.6165 19.4453 73.0085 19.7324 73.5098C20.0241 74.0065 20.2041 74.583 20.2725 75.2393H18.96C18.8962 74.7744 18.7777 74.3757 18.6045 74.043C18.4313 73.7057 18.1852 73.446 17.8662 73.2637C17.5472 73.0814 17.1302 72.9902 16.6152 72.9902C16.1732 72.9902 15.7835 73.0745 15.4463 73.2432C15.1136 73.4118 14.8333 73.651 14.6055 73.9609C14.3822 74.2708 14.2135 74.6423 14.0996 75.0752C13.9857 75.5081 13.9287 75.9889 13.9287 76.5176V77.5225C13.9287 78.0101 13.9788 78.4681 14.0791 78.8965C14.1839 79.3249 14.3411 79.7008 14.5508 80.0244C14.7604 80.348 15.027 80.6032 15.3506 80.79C15.6742 80.9723 16.057 81.0635 16.499 81.0635C17.0596 81.0635 17.5062 80.9746 17.8389 80.7969C18.1715 80.6191 18.4222 80.3639 18.5908 80.0312C18.764 79.6986 18.887 79.2998 18.96 78.835ZM23.2529 74.6035V82H21.9883V74.6035H23.2529ZM28.1064 74.6035L24.5996 78.8418H22.8291L22.6377 77.7344H24.0869L26.5684 74.6035H28.1064ZM26.7461 82L24.0254 78.6504L24.8389 77.7344L28.3525 82H26.7461ZM28.9678 78.3838V78.2266C28.9678 77.6934 29.0452 77.1989 29.2002 76.7432C29.3551 76.2829 29.5785 75.8841 29.8701 75.5469C30.1618 75.2051 30.515 74.9408 30.9297 74.7539C31.3444 74.5625 31.8092 74.4668 32.3242 74.4668C32.8438 74.4668 33.3109 74.5625 33.7256 74.7539C34.1449 74.9408 34.5003 75.2051 34.792 75.5469C35.0882 75.8841 35.3138 76.2829 35.4688 76.7432C35.6237 77.1989 35.7012 77.6934 35.7012 78.2266V78.3838C35.7012 78.917 35.6237 79.4115 35.4688 79.8672C35.3138 80.3229 35.0882 80.7217 34.792 81.0635C34.5003 81.4007 34.1471 81.665 33.7324 81.8564C33.3223 82.0433 32.8574 82.1367 32.3379 82.1367C31.8184 82.1367 31.3512 82.0433 30.9365 81.8564C30.5218 81.665 30.1663 81.4007 29.8701 81.0635C29.5785 80.7217 29.3551 80.3229 29.2002 79.8672C29.0452 79.4115 28.9678 78.917 28.9678 78.3838ZM30.2324 78.2266V78.3838C30.2324 78.7529 30.2757 79.1016 30.3623 79.4297C30.4489 79.7533 30.5788 80.0404 30.752 80.291C30.9297 80.5417 31.1507 80.7399 31.415 80.8857C31.6794 81.027 31.987 81.0977 32.3379 81.0977C32.6842 81.0977 32.9873 81.027 33.2471 80.8857C33.5114 80.7399 33.7301 80.5417 33.9033 80.291C34.0765 80.0404 34.2064 79.7533 34.293 79.4297C34.3841 79.1016 34.4297 78.7529 34.4297 78.3838V78.2266C34.4297 77.862 34.3841 77.5179 34.293 77.1943C34.2064 76.8662 34.0742 76.5768 33.8965 76.3262C33.7233 76.071 33.5046 75.8704 33.2402 75.7246C32.9805 75.5788 32.6751 75.5059 32.3242 75.5059C31.9779 75.5059 31.6725 75.5788 31.4082 75.7246C31.1484 75.8704 30.9297 76.071 30.752 76.3262C30.5788 76.5768 30.4489 76.8662 30.3623 77.1943C30.2757 77.5179 30.2324 77.862 30.2324 78.2266ZM38.5518 76.0254V84.8438H37.2803V74.6035H38.4424L38.5518 76.0254ZM43.5352 78.2402V78.3838C43.5352 78.9215 43.4714 79.4206 43.3438 79.8809C43.2161 80.3366 43.0293 80.7331 42.7832 81.0703C42.5417 81.4076 42.2432 81.6696 41.8877 81.8564C41.5322 82.0433 41.1243 82.1367 40.6641 82.1367C40.1947 82.1367 39.7799 82.0592 39.4199 81.9043C39.0599 81.7493 38.7546 81.5238 38.5039 81.2275C38.2533 80.9313 38.0527 80.5758 37.9023 80.1611C37.7565 79.7464 37.6562 79.2793 37.6016 78.7598V77.9941C37.6562 77.4473 37.7588 76.9574 37.9092 76.5244C38.0596 76.0915 38.2578 75.7223 38.5039 75.417C38.7546 75.1071 39.0576 74.8724 39.4131 74.7129C39.7686 74.5488 40.1787 74.4668 40.6436 74.4668C41.1084 74.4668 41.5208 74.5579 41.8809 74.7402C42.2409 74.918 42.5439 75.1732 42.79 75.5059C43.0361 75.8385 43.2207 76.2373 43.3438 76.7021C43.4714 77.1624 43.5352 77.6751 43.5352 78.2402ZM42.2637 78.3838V78.2402C42.2637 77.8711 42.2249 77.5247 42.1475 77.2012C42.07 76.873 41.9492 76.5859 41.7852 76.3398C41.6257 76.0892 41.4206 75.8932 41.1699 75.752C40.9193 75.6061 40.6208 75.5332 40.2744 75.5332C39.9554 75.5332 39.6774 75.5879 39.4404 75.6973C39.208 75.8066 39.0098 75.9548 38.8457 76.1416C38.6816 76.3239 38.5472 76.5335 38.4424 76.7705C38.3421 77.0029 38.2669 77.2445 38.2168 77.4951V79.2656C38.3079 79.5846 38.4355 79.8854 38.5996 80.168C38.7637 80.446 38.9824 80.6715 39.2559 80.8447C39.5293 81.0133 39.8734 81.0977 40.2881 81.0977C40.6299 81.0977 40.9238 81.027 41.1699 80.8857C41.4206 80.7399 41.6257 80.5417 41.7852 80.291C41.9492 80.0404 42.07 79.7533 42.1475 79.4297C42.2249 79.1016 42.2637 78.7529 42.2637 78.3838ZM44.8135 78.3838V78.2266C44.8135 77.6934 44.891 77.1989 45.0459 76.7432C45.2008 76.2829 45.4242 75.8841 45.7158 75.5469C46.0075 75.2051 46.3607 74.9408 46.7754 74.7539C47.1901 74.5625 47.6549 74.4668 48.1699 74.4668C48.6895 74.4668 49.1566 74.5625 49.5713 74.7539C49.9906 74.9408 50.346 75.2051 50.6377 75.5469C50.9339 75.8841 51.1595 76.2829 51.3145 76.7432C51.4694 77.1989 51.5469 77.6934 51.5469 78.2266V78.3838C51.5469 78.917 51.4694 79.4115 51.3145 79.8672C51.1595 80.3229 50.9339 80.7217 50.6377 81.0635C50.346 81.4007 49.9928 81.665 49.5781 81.8564C49.168 82.0433 48.7031 82.1367 48.1836 82.1367C47.6641 82.1367 47.1969 82.0433 46.7822 81.8564C46.3675 81.665 46.012 81.4007 45.7158 81.0635C45.4242 80.7217 45.2008 80.3229 45.0459 79.8672C44.891 79.4115 44.8135 78.917 44.8135 78.3838ZM46.0781 78.2266V78.3838C46.0781 78.7529 46.1214 79.1016 46.208 79.4297C46.2946 79.7533 46.4245 80.0404 46.5977 80.291C46.7754 80.5417 46.9964 80.7399 47.2607 80.8857C47.5251 81.027 47.8327 81.0977 48.1836 81.0977C48.5299 81.0977 48.833 81.027 49.0928 80.8857C49.3571 80.7399 49.5758 80.5417 49.749 80.291C49.9222 80.0404 50.0521 79.7533 50.1387 79.4297C50.2298 79.1016 50.2754 78.7529 50.2754 78.3838V78.2266C50.2754 77.862 50.2298 77.5179 50.1387 77.1943C50.0521 76.8662 49.9199 76.5768 49.7422 76.3262C49.569 76.071 49.3503 75.8704 49.0859 75.7246C48.8262 75.5788 48.5208 75.5059 48.1699 75.5059C47.8236 75.5059 47.5182 75.5788 47.2539 75.7246C46.9941 75.8704 46.7754 76.071 46.5977 76.3262C46.4245 76.5768 46.2946 76.8662 46.208 77.1943C46.1214 77.5179 46.0781 77.862 46.0781 78.2266ZM59.5654 81.0977C59.8662 81.0977 60.1442 81.0361 60.3994 80.9131C60.6546 80.79 60.8643 80.6214 61.0283 80.4072C61.1924 80.1885 61.2858 79.9401 61.3086 79.6621H62.5117C62.4889 80.0996 62.3408 80.5075 62.0674 80.8857C61.7985 81.2594 61.4453 81.5625 61.0078 81.7949C60.5703 82.0228 60.0895 82.1367 59.5654 82.1367C59.0094 82.1367 58.5241 82.0387 58.1094 81.8428C57.6992 81.6468 57.3574 81.3779 57.084 81.0361C56.8151 80.6943 56.6123 80.3024 56.4756 79.8604C56.3434 79.4137 56.2773 78.9421 56.2773 78.4453V78.1582C56.2773 77.6615 56.3434 77.1921 56.4756 76.75C56.6123 76.3034 56.8151 75.9092 57.084 75.5674C57.3574 75.2256 57.6992 74.9567 58.1094 74.7607C58.5241 74.5648 59.0094 74.4668 59.5654 74.4668C60.1442 74.4668 60.6501 74.5853 61.083 74.8223C61.516 75.0547 61.8555 75.3737 62.1016 75.7793C62.3522 76.1803 62.4889 76.6361 62.5117 77.1465H61.3086C61.2858 76.8411 61.1992 76.5654 61.0488 76.3193C60.903 76.0732 60.7025 75.8773 60.4473 75.7314C60.1966 75.5811 59.9027 75.5059 59.5654 75.5059C59.1781 75.5059 58.8522 75.5833 58.5879 75.7383C58.3281 75.8887 58.1208 76.0938 57.9658 76.3535C57.8154 76.6087 57.7061 76.8936 57.6377 77.208C57.5739 77.5179 57.542 77.8346 57.542 78.1582V78.4453C57.542 78.7689 57.5739 79.0879 57.6377 79.4023C57.7015 79.7168 57.8086 80.0016 57.959 80.2568C58.1139 80.512 58.3213 80.7171 58.5811 80.8721C58.8454 81.0225 59.1735 81.0977 59.5654 81.0977ZM71.1455 77.3447H68.623L68.6094 76.2852H70.8994C71.2777 76.2852 71.6081 76.2214 71.8906 76.0938C72.1732 75.9661 72.3919 75.7839 72.5469 75.5469C72.7064 75.3053 72.7861 75.0182 72.7861 74.6855C72.7861 74.321 72.7155 74.0247 72.5742 73.7969C72.4375 73.5645 72.2256 73.3958 71.9385 73.291C71.6559 73.1816 71.2959 73.127 70.8584 73.127H68.917V82H67.5977V72.0469H70.8584C71.3688 72.0469 71.8245 72.0993 72.2256 72.2041C72.6266 72.3044 72.9661 72.4639 73.2441 72.6826C73.5267 72.8968 73.7409 73.1702 73.8867 73.5029C74.0326 73.8356 74.1055 74.2344 74.1055 74.6992C74.1055 75.1094 74.0007 75.4808 73.791 75.8135C73.5814 76.1416 73.2897 76.4105 72.916 76.6201C72.5469 76.8298 72.1139 76.9642 71.6172 77.0234L71.1455 77.3447ZM71.084 82H68.1035L68.8486 80.9268H71.084C71.5033 80.9268 71.8587 80.8538 72.1504 80.708C72.4466 80.5622 72.6722 80.3571 72.8271 80.0928C72.9821 79.8239 73.0596 79.5072 73.0596 79.1426C73.0596 78.7734 72.9935 78.4544 72.8613 78.1855C72.7292 77.9167 72.5218 77.7093 72.2393 77.5635C71.9567 77.4176 71.5921 77.3447 71.1455 77.3447H69.2656L69.2793 76.2852H71.8496L72.1299 76.668C72.6084 76.709 73.014 76.8457 73.3467 77.0781C73.6794 77.306 73.9323 77.5977 74.1055 77.9531C74.2832 78.3086 74.3721 78.7005 74.3721 79.1289C74.3721 79.7487 74.2354 80.2728 73.9619 80.7012C73.693 81.125 73.3125 81.4486 72.8203 81.6719C72.3281 81.8906 71.7493 82 71.084 82ZM80.4902 80.7354V76.9277C80.4902 76.6361 80.431 76.3831 80.3125 76.1689C80.1986 75.9502 80.0254 75.7816 79.793 75.6631C79.5605 75.5446 79.2734 75.4854 78.9316 75.4854C78.6126 75.4854 78.3324 75.54 78.0908 75.6494C77.8538 75.7588 77.667 75.9023 77.5303 76.0801C77.3981 76.2578 77.332 76.4492 77.332 76.6543H76.0674C76.0674 76.39 76.1357 76.1279 76.2725 75.8682C76.4092 75.6084 76.6051 75.3737 76.8604 75.1641C77.1201 74.9499 77.43 74.7812 77.79 74.6582C78.1546 74.5306 78.5602 74.4668 79.0068 74.4668C79.5446 74.4668 80.0186 74.5579 80.4287 74.7402C80.8434 74.9225 81.167 75.1982 81.3994 75.5674C81.6364 75.932 81.7549 76.39 81.7549 76.9414V80.3867C81.7549 80.6328 81.7754 80.8949 81.8164 81.1729C81.862 81.4508 81.9281 81.6901 82.0146 81.8906V82H80.6953C80.6315 81.8542 80.5814 81.6605 80.5449 81.4189C80.5085 81.1729 80.4902 80.945 80.4902 80.7354ZM80.709 77.5156L80.7227 78.4043H79.4443C79.0843 78.4043 78.763 78.4339 78.4805 78.4932C78.1979 78.5479 77.9609 78.6322 77.7695 78.7461C77.5781 78.86 77.4323 79.0036 77.332 79.1768C77.2318 79.3454 77.1816 79.5436 77.1816 79.7715C77.1816 80.0039 77.234 80.2158 77.3389 80.4072C77.4437 80.5986 77.6009 80.7513 77.8105 80.8652C78.0247 80.9746 78.2868 81.0293 78.5967 81.0293C78.984 81.0293 79.3258 80.9473 79.6221 80.7832C79.9183 80.6191 80.153 80.4186 80.3262 80.1816C80.5039 79.9447 80.5996 79.7145 80.6133 79.4912L81.1533 80.0996C81.1214 80.291 81.0348 80.5029 80.8936 80.7354C80.7523 80.9678 80.5632 81.1911 80.3262 81.4053C80.0938 81.6149 79.8158 81.7904 79.4922 81.9316C79.1732 82.0684 78.8132 82.1367 78.4121 82.1367C77.9108 82.1367 77.471 82.0387 77.0928 81.8428C76.7191 81.6468 76.4274 81.3848 76.2178 81.0566C76.0127 80.724 75.9102 80.3525 75.9102 79.9424C75.9102 79.5459 75.9876 79.1973 76.1426 78.8965C76.2975 78.5911 76.5208 78.3382 76.8125 78.1377C77.1042 77.9326 77.4551 77.7777 77.8652 77.6729C78.2754 77.568 78.7334 77.5156 79.2393 77.5156H80.709ZM87.9961 80.3184L90.5117 74.6035H91.7285L88.4336 82H87.5586L84.2773 74.6035H85.4941L87.9961 80.3184ZM85.125 74.6035V82H83.8604V74.6035H85.125ZM90.8262 82V74.6035H92.0977V82H90.8262ZM95.502 79.9971L98.9131 74.6035H100.185V82H98.9131V76.6064L95.502 82H94.2441V74.6035H95.502V79.9971ZM108.647 81.0977C108.948 81.0977 109.226 81.0361 109.481 80.9131C109.737 80.79 109.946 80.6214 110.11 80.4072C110.274 80.1885 110.368 79.9401 110.391 79.6621H111.594C111.571 80.0996 111.423 80.5075 111.149 80.8857C110.881 81.2594 110.527 81.5625 110.09 81.7949C109.652 82.0228 109.172 82.1367 108.647 82.1367C108.091 82.1367 107.606 82.0387 107.191 81.8428C106.781 81.6468 106.439 81.3779 106.166 81.0361C105.897 80.6943 105.694 80.3024 105.558 79.8604C105.425 79.4137 105.359 78.9421 105.359 78.4453V78.1582C105.359 77.6615 105.425 77.1921 105.558 76.75C105.694 76.3034 105.897 75.9092 106.166 75.5674C106.439 75.2256 106.781 74.9567 107.191 74.7607C107.606 74.5648 108.091 74.4668 108.647 74.4668C109.226 74.4668 109.732 74.5853 110.165 74.8223C110.598 75.0547 110.938 75.3737 111.184 75.7793C111.434 76.1803 111.571 76.6361 111.594 77.1465H110.391C110.368 76.8411 110.281 76.5654 110.131 76.3193C109.985 76.0732 109.785 75.8773 109.529 75.7314C109.279 75.5811 108.985 75.5059 108.647 75.5059C108.26 75.5059 107.934 75.5833 107.67 75.7383C107.41 75.8887 107.203 76.0938 107.048 76.3535C106.897 76.6087 106.788 76.8936 106.72 77.208C106.656 77.5179 106.624 77.8346 106.624 78.1582V78.4453C106.624 78.7689 106.656 79.0879 106.72 79.4023C106.784 79.7168 106.891 80.0016 107.041 80.2568C107.196 80.512 107.403 80.7171 107.663 80.8721C107.927 81.0225 108.256 81.0977 108.647 81.0977ZM116.488 78.7461H114.062L114.048 77.7344H116.03C116.422 77.7344 116.748 77.6956 117.008 77.6182C117.272 77.5407 117.47 77.4245 117.603 77.2695C117.735 77.1146 117.801 76.9232 117.801 76.6953C117.801 76.5176 117.762 76.3626 117.685 76.2305C117.612 76.0938 117.5 75.9821 117.35 75.8955C117.199 75.8044 117.012 75.7383 116.789 75.6973C116.57 75.6517 116.313 75.6289 116.017 75.6289H114.396V82H113.132V74.6035H116.017C116.486 74.6035 116.908 74.6445 117.281 74.7266C117.66 74.8086 117.981 74.9339 118.245 75.1025C118.514 75.2666 118.719 75.4762 118.86 75.7314C119.002 75.9867 119.072 76.2874 119.072 76.6338C119.072 76.8571 119.027 77.069 118.936 77.2695C118.844 77.4701 118.71 77.6478 118.532 77.8027C118.354 77.9577 118.136 78.0853 117.876 78.1855C117.616 78.2812 117.318 78.3428 116.98 78.3701L116.488 78.7461ZM116.488 82H113.604L114.232 80.9746H116.488C116.839 80.9746 117.131 80.9313 117.363 80.8447C117.596 80.7536 117.769 80.626 117.883 80.4619C118.001 80.2933 118.061 80.0928 118.061 79.8604C118.061 79.6279 118.001 79.4297 117.883 79.2656C117.769 79.097 117.596 78.9694 117.363 78.8828C117.131 78.7917 116.839 78.7461 116.488 78.7461H114.567L114.581 77.7344H116.98L117.438 78.1172C117.844 78.1491 118.188 78.2493 118.471 78.418C118.753 78.5866 118.967 78.8008 119.113 79.0605C119.259 79.3158 119.332 79.5938 119.332 79.8945C119.332 80.2409 119.266 80.5462 119.134 80.8105C119.006 81.0749 118.819 81.2959 118.573 81.4736C118.327 81.6468 118.029 81.779 117.678 81.8701C117.327 81.9567 116.93 82 116.488 82ZM122.524 78.4727H123.892L121.752 82H120.385L122.524 78.4727ZM123.584 74.6035H126.674V82H125.409V75.6289H123.584C123.224 75.6289 122.93 75.6904 122.702 75.8135C122.474 75.932 122.308 76.0869 122.203 76.2783C122.098 76.4697 122.046 76.668 122.046 76.873C122.046 77.0736 122.094 77.2673 122.189 77.4541C122.285 77.6364 122.436 77.7868 122.641 77.9053C122.846 78.0238 123.11 78.083 123.434 78.083H125.751V79.1221H123.434C123.01 79.1221 122.634 79.0651 122.306 78.9512C121.978 78.8372 121.7 78.68 121.472 78.4795C121.244 78.2744 121.071 78.0352 120.952 77.7617C120.834 77.4837 120.774 77.1829 120.774 76.8594C120.774 76.5358 120.836 76.2373 120.959 75.9639C121.087 75.6904 121.269 75.4512 121.506 75.2461C121.747 75.041 122.041 74.8838 122.388 74.7744C122.739 74.6605 123.137 74.6035 123.584 74.6035ZM130.953 78.7803L128.15 74.6035H129.675L131.589 77.666H133.065L132.881 78.7803H130.953ZM131.644 78.6504L129.497 82H127.897L130.844 77.7344L131.644 78.6504ZM133.715 74.6035V82H132.45V74.6035H133.715ZM138.028 74.6035L135.226 78.7803H133.298L133.1 77.666H134.583L136.497 74.6035H138.028ZM136.675 82L134.521 78.6504L135.335 77.7344L138.274 82H136.675ZM142.376 82.1367C141.861 82.1367 141.394 82.0501 140.975 81.877C140.56 81.6992 140.202 81.4508 139.901 81.1318C139.605 80.8128 139.377 80.4346 139.218 79.9971C139.058 79.5596 138.979 79.0811 138.979 78.5615V78.2744C138.979 77.6729 139.067 77.1374 139.245 76.668C139.423 76.194 139.664 75.793 139.97 75.4648C140.275 75.1367 140.621 74.8883 141.009 74.7197C141.396 74.5511 141.797 74.4668 142.212 74.4668C142.741 74.4668 143.196 74.5579 143.579 74.7402C143.966 74.9225 144.283 75.1777 144.529 75.5059C144.775 75.8294 144.958 76.2122 145.076 76.6543C145.195 77.0918 145.254 77.5703 145.254 78.0898V78.6572H139.73V77.625H143.989V77.5293C143.971 77.2012 143.903 76.8822 143.784 76.5723C143.67 76.2624 143.488 76.0072 143.237 75.8066C142.987 75.6061 142.645 75.5059 142.212 75.5059C141.925 75.5059 141.66 75.5674 141.419 75.6904C141.177 75.8089 140.97 75.9867 140.797 76.2236C140.624 76.4606 140.489 76.75 140.394 77.0918C140.298 77.4336 140.25 77.8278 140.25 78.2744V78.5615C140.25 78.9124 140.298 79.2428 140.394 79.5527C140.494 79.8581 140.637 80.127 140.824 80.3594C141.016 80.5918 141.246 80.7741 141.515 80.9062C141.788 81.0384 142.098 81.1045 142.444 81.1045C142.891 81.1045 143.269 81.0133 143.579 80.8311C143.889 80.6488 144.16 80.4049 144.393 80.0996L145.158 80.708C144.999 80.9495 144.796 81.1797 144.55 81.3984C144.304 81.6172 144.001 81.7949 143.641 81.9316C143.285 82.0684 142.864 82.1367 142.376 82.1367ZM149.663 74.6035V82H148.392V74.6035H149.663ZM152.145 74.6035V75.6289H145.958V74.6035H152.145ZM155.802 81.0977C156.103 81.0977 156.381 81.0361 156.636 80.9131C156.891 80.79 157.101 80.6214 157.265 80.4072C157.429 80.1885 157.522 79.9401 157.545 79.6621H158.748C158.725 80.0996 158.577 80.5075 158.304 80.8857C158.035 81.2594 157.682 81.5625 157.244 81.7949C156.807 82.0228 156.326 82.1367 155.802 82.1367C155.246 82.1367 154.76 82.0387 154.346 81.8428C153.936 81.6468 153.594 81.3779 153.32 81.0361C153.051 80.6943 152.849 80.3024 152.712 79.8604C152.58 79.4137 152.514 78.9421 152.514 78.4453V78.1582C152.514 77.6615 152.58 77.1921 152.712 76.75C152.849 76.3034 153.051 75.9092 153.32 75.5674C153.594 75.2256 153.936 74.9567 154.346 74.7607C154.76 74.5648 155.246 74.4668 155.802 74.4668C156.381 74.4668 156.886 74.5853 157.319 74.8223C157.752 75.0547 158.092 75.3737 158.338 75.7793C158.589 76.1803 158.725 76.6361 158.748 77.1465H157.545C157.522 76.8411 157.436 76.5654 157.285 76.3193C157.139 76.0732 156.939 75.8773 156.684 75.7314C156.433 75.5811 156.139 75.5059 155.802 75.5059C155.414 75.5059 155.089 75.5833 154.824 75.7383C154.564 75.8887 154.357 76.0938 154.202 76.3535C154.052 76.6087 153.942 76.8936 153.874 77.208C153.81 77.5179 153.778 77.8346 153.778 78.1582V78.4453C153.778 78.7689 153.81 79.0879 153.874 79.4023C153.938 79.7168 154.045 80.0016 154.195 80.2568C154.35 80.512 154.558 80.7171 154.817 80.8721C155.082 81.0225 155.41 81.0977 155.802 81.0977ZM161.667 78.4727H163.034L160.895 82H159.527L161.667 78.4727ZM162.727 74.6035H165.816V82H164.552V75.6289H162.727C162.367 75.6289 162.073 75.6904 161.845 75.8135C161.617 75.932 161.451 76.0869 161.346 76.2783C161.241 76.4697 161.188 76.668 161.188 76.873C161.188 77.0736 161.236 77.2673 161.332 77.4541C161.428 77.6364 161.578 77.7868 161.783 77.9053C161.988 78.0238 162.253 78.083 162.576 78.083H164.894V79.1221H162.576C162.152 79.1221 161.776 79.0651 161.448 78.9512C161.12 78.8372 160.842 78.68 160.614 78.4795C160.386 78.2744 160.213 78.0352 160.095 77.7617C159.976 77.4837 159.917 77.1829 159.917 76.8594C159.917 76.5358 159.979 76.2373 160.102 75.9639C160.229 75.6904 160.411 75.4512 160.648 75.2461C160.89 75.041 161.184 74.8838 161.53 74.7744C161.881 74.6605 162.28 74.6035 162.727 74.6035ZM176.344 77.8096V78.835H172.434V77.8096H176.344ZM172.7 74.6035V82H171.436V74.6035H172.7ZM177.369 74.6035V82H176.098V74.6035H177.369ZM183.768 80.7354V76.9277C183.768 76.6361 183.708 76.3831 183.59 76.1689C183.476 75.9502 183.303 75.7816 183.07 75.6631C182.838 75.5446 182.551 75.4854 182.209 75.4854C181.89 75.4854 181.61 75.54 181.368 75.6494C181.131 75.7588 180.944 75.9023 180.808 76.0801C180.675 76.2578 180.609 76.4492 180.609 76.6543H179.345C179.345 76.39 179.413 76.1279 179.55 75.8682C179.687 75.6084 179.882 75.3737 180.138 75.1641C180.397 74.9499 180.707 74.7812 181.067 74.6582C181.432 74.5306 181.838 74.4668 182.284 74.4668C182.822 74.4668 183.296 74.5579 183.706 74.7402C184.121 74.9225 184.444 75.1982 184.677 75.5674C184.914 75.932 185.032 76.39 185.032 76.9414V80.3867C185.032 80.6328 185.053 80.8949 185.094 81.1729C185.139 81.4508 185.205 81.6901 185.292 81.8906V82H183.973C183.909 81.8542 183.859 81.6605 183.822 81.4189C183.786 81.1729 183.768 80.945 183.768 80.7354ZM183.986 77.5156L184 78.4043H182.722C182.362 78.4043 182.04 78.4339 181.758 78.4932C181.475 78.5479 181.238 78.6322 181.047 78.7461C180.855 78.86 180.71 79.0036 180.609 79.1768C180.509 79.3454 180.459 79.5436 180.459 79.7715C180.459 80.0039 180.511 80.2158 180.616 80.4072C180.721 80.5986 180.878 80.7513 181.088 80.8652C181.302 80.9746 181.564 81.0293 181.874 81.0293C182.261 81.0293 182.603 80.9473 182.899 80.7832C183.196 80.6191 183.43 80.4186 183.604 80.1816C183.781 79.9447 183.877 79.7145 183.891 79.4912L184.431 80.0996C184.399 80.291 184.312 80.5029 184.171 80.7354C184.03 80.9678 183.84 81.1911 183.604 81.4053C183.371 81.6149 183.093 81.7904 182.77 81.9316C182.451 82.0684 182.09 82.1367 181.689 82.1367C181.188 82.1367 180.748 82.0387 180.37 81.8428C179.996 81.6468 179.705 81.3848 179.495 81.0566C179.29 80.724 179.188 80.3525 179.188 79.9424C179.188 79.5459 179.265 79.1973 179.42 78.8965C179.575 78.5911 179.798 78.3382 180.09 78.1377C180.382 77.9326 180.732 77.7777 181.143 77.6729C181.553 77.568 182.011 77.5156 182.517 77.5156H183.986ZM187.131 74.6035H188.396V80.9609H191.103V74.6035H192.374V80.9609H195.074V74.6035H196.339V82H187.131V74.6035ZM206.08 80.3184L208.596 74.6035H209.812L206.518 82H205.643L202.361 74.6035H203.578L206.08 80.3184ZM203.209 74.6035V82H201.944V74.6035H203.209ZM208.91 82V74.6035H210.182V82H208.91ZM215.288 82.1367C214.773 82.1367 214.306 82.0501 213.887 81.877C213.472 81.6992 213.114 81.4508 212.813 81.1318C212.517 80.8128 212.289 80.4346 212.13 79.9971C211.97 79.5596 211.891 79.0811 211.891 78.5615V78.2744C211.891 77.6729 211.979 77.1374 212.157 76.668C212.335 76.194 212.576 75.793 212.882 75.4648C213.187 75.1367 213.534 74.8883 213.921 74.7197C214.308 74.5511 214.709 74.4668 215.124 74.4668C215.653 74.4668 216.108 74.5579 216.491 74.7402C216.879 74.9225 217.195 75.1777 217.441 75.5059C217.688 75.8294 217.87 76.2122 217.988 76.6543C218.107 77.0918 218.166 77.5703 218.166 78.0898V78.6572H212.643V77.625H216.901V77.5293C216.883 77.2012 216.815 76.8822 216.696 76.5723C216.582 76.2624 216.4 76.0072 216.149 75.8066C215.899 75.6061 215.557 75.5059 215.124 75.5059C214.837 75.5059 214.573 75.5674 214.331 75.6904C214.09 75.8089 213.882 75.9867 213.709 76.2236C213.536 76.4606 213.401 76.75 213.306 77.0918C213.21 77.4336 213.162 77.8278 213.162 78.2744V78.5615C213.162 78.9124 213.21 79.2428 213.306 79.5527C213.406 79.8581 213.549 80.127 213.736 80.3594C213.928 80.5918 214.158 80.7741 214.427 80.9062C214.7 81.0384 215.01 81.1045 215.356 81.1045C215.803 81.1045 216.181 81.0133 216.491 80.8311C216.801 80.6488 217.072 80.4049 217.305 80.0996L218.07 80.708C217.911 80.9495 217.708 81.1797 217.462 81.3984C217.216 81.6172 216.913 81.7949 216.553 81.9316C216.197 82.0684 215.776 82.1367 215.288 82.1367ZM224.66 77.8096V78.835H220.75V77.8096H224.66ZM221.017 74.6035V82H219.752V74.6035H221.017ZM225.686 74.6035V82H224.414V74.6035H225.686ZM230.792 82.1367C230.277 82.1367 229.81 82.0501 229.391 81.877C228.976 81.6992 228.618 81.4508 228.317 81.1318C228.021 80.8128 227.793 80.4346 227.634 79.9971C227.474 79.5596 227.395 79.0811 227.395 78.5615V78.2744C227.395 77.6729 227.483 77.1374 227.661 76.668C227.839 76.194 228.08 75.793 228.386 75.4648C228.691 75.1367 229.037 74.8883 229.425 74.7197C229.812 74.5511 230.213 74.4668 230.628 74.4668C231.157 74.4668 231.612 74.5579 231.995 74.7402C232.382 74.9225 232.699 75.1777 232.945 75.5059C233.191 75.8294 233.374 76.2122 233.492 76.6543C233.611 77.0918 233.67 77.5703 233.67 78.0898V78.6572H228.146V77.625H232.405V77.5293C232.387 77.2012 232.319 76.8822 232.2 76.5723C232.086 76.2624 231.904 76.0072 231.653 75.8066C231.403 75.6061 231.061 75.5059 230.628 75.5059C230.341 75.5059 230.076 75.5674 229.835 75.6904C229.593 75.8089 229.386 75.9867 229.213 76.2236C229.04 76.4606 228.905 76.75 228.81 77.0918C228.714 77.4336 228.666 77.8278 228.666 78.2744V78.5615C228.666 78.9124 228.714 79.2428 228.81 79.5527C228.91 79.8581 229.053 80.127 229.24 80.3594C229.432 80.5918 229.662 80.7741 229.931 80.9062C230.204 81.0384 230.514 81.1045 230.86 81.1045C231.307 81.1045 231.685 81.0133 231.995 80.8311C232.305 80.6488 232.576 80.4049 232.809 80.0996L233.574 80.708C233.415 80.9495 233.212 81.1797 232.966 81.3984C232.72 81.6172 232.417 81.7949 232.057 81.9316C231.701 82.0684 231.28 82.1367 230.792 82.1367ZM236.479 74.6035H237.744L237.635 77.3721C237.607 78.0739 237.528 78.68 237.396 79.1904C237.263 79.7008 237.095 80.1361 236.89 80.4961C236.685 80.8516 236.454 81.1501 236.199 81.3916C235.949 81.6331 235.689 81.8359 235.42 82H234.791L234.825 80.9678L235.085 80.9609C235.235 80.7832 235.381 80.6009 235.522 80.4141C235.664 80.2227 235.794 79.9971 235.912 79.7373C236.031 79.473 236.129 79.1517 236.206 78.7734C236.288 78.3906 236.34 77.9235 236.363 77.3721L236.479 74.6035ZM236.794 74.6035H241.244V82H239.979V75.7725H236.794V74.6035ZM234.504 80.9609H242.194V84.1807H240.93V82H235.769V84.1807H234.497L234.504 80.9609ZM245.838 78.7803L243.035 74.6035H244.56L246.474 77.666H247.95L247.766 78.7803H245.838ZM246.528 78.6504L244.382 82H242.782L245.729 77.7344L246.528 78.6504ZM248.6 74.6035V82H247.335V74.6035H248.6ZM252.913 74.6035L250.11 78.7803H248.183L247.984 77.666H249.468L251.382 74.6035H252.913ZM251.56 82L249.406 78.6504L250.22 77.7344L253.159 82H251.56ZM257.261 82.1367C256.746 82.1367 256.279 82.0501 255.859 81.877C255.445 81.6992 255.087 81.4508 254.786 81.1318C254.49 80.8128 254.262 80.4346 254.103 79.9971C253.943 79.5596 253.863 79.0811 253.863 78.5615V78.2744C253.863 77.6729 253.952 77.1374 254.13 76.668C254.308 76.194 254.549 75.793 254.854 75.4648C255.16 75.1367 255.506 74.8883 255.894 74.7197C256.281 74.5511 256.682 74.4668 257.097 74.4668C257.625 74.4668 258.081 74.5579 258.464 74.7402C258.851 74.9225 259.168 75.1777 259.414 75.5059C259.66 75.8294 259.842 76.2122 259.961 76.6543C260.079 77.0918 260.139 77.5703 260.139 78.0898V78.6572H254.615V77.625H258.874V77.5293C258.856 77.2012 258.787 76.8822 258.669 76.5723C258.555 76.2624 258.373 76.0072 258.122 75.8066C257.871 75.6061 257.53 75.5059 257.097 75.5059C256.81 75.5059 256.545 75.5674 256.304 75.6904C256.062 75.8089 255.855 75.9867 255.682 76.2236C255.508 76.4606 255.374 76.75 255.278 77.0918C255.183 77.4336 255.135 77.8278 255.135 78.2744V78.5615C255.135 78.9124 255.183 79.2428 255.278 79.5527C255.379 79.8581 255.522 80.127 255.709 80.3594C255.9 80.5918 256.131 80.7741 256.399 80.9062C256.673 81.0384 256.983 81.1045 257.329 81.1045C257.776 81.1045 258.154 81.0133 258.464 80.8311C258.774 80.6488 259.045 80.4049 259.277 80.0996L260.043 80.708C259.883 80.9495 259.681 81.1797 259.435 81.3984C259.188 81.6172 258.885 81.7949 258.525 81.9316C258.17 82.0684 257.748 82.1367 257.261 82.1367ZM262.88 76.0254V84.8438H261.608V74.6035H262.771L262.88 76.0254ZM267.863 78.2402V78.3838C267.863 78.9215 267.799 79.4206 267.672 79.8809C267.544 80.3366 267.357 80.7331 267.111 81.0703C266.87 81.4076 266.571 81.6696 266.216 81.8564C265.86 82.0433 265.452 82.1367 264.992 82.1367C264.523 82.1367 264.108 82.0592 263.748 81.9043C263.388 81.7493 263.083 81.5238 262.832 81.2275C262.581 80.9313 262.381 80.5758 262.23 80.1611C262.085 79.7464 261.984 79.2793 261.93 78.7598V77.9941C261.984 77.4473 262.087 76.9574 262.237 76.5244C262.388 76.0915 262.586 75.7223 262.832 75.417C263.083 75.1071 263.386 74.8724 263.741 74.7129C264.097 74.5488 264.507 74.4668 264.972 74.4668C265.437 74.4668 265.849 74.5579 266.209 74.7402C266.569 74.918 266.872 75.1732 267.118 75.5059C267.364 75.8385 267.549 76.2373 267.672 76.7021C267.799 77.1624 267.863 77.6751 267.863 78.2402ZM266.592 78.3838V78.2402C266.592 77.8711 266.553 77.5247 266.476 77.2012C266.398 76.873 266.277 76.5859 266.113 76.3398C265.954 76.0892 265.749 75.8932 265.498 75.752C265.247 75.6061 264.949 75.5332 264.603 75.5332C264.284 75.5332 264.006 75.5879 263.769 75.6973C263.536 75.8066 263.338 75.9548 263.174 76.1416C263.01 76.3239 262.875 76.5335 262.771 76.7705C262.67 77.0029 262.595 77.2445 262.545 77.4951V79.2656C262.636 79.5846 262.764 79.8854 262.928 80.168C263.092 80.446 263.311 80.6715 263.584 80.8447C263.857 81.0133 264.201 81.0977 264.616 81.0977C264.958 81.0977 265.252 81.027 265.498 80.8857C265.749 80.7399 265.954 80.5417 266.113 80.291C266.277 80.0404 266.398 79.7533 266.476 79.4297C266.553 79.1016 266.592 78.7529 266.592 78.3838ZM269.497 81.3301C269.497 81.1159 269.563 80.9359 269.695 80.79C269.832 80.6396 270.028 80.5645 270.283 80.5645C270.538 80.5645 270.732 80.6396 270.864 80.79C271.001 80.9359 271.069 81.1159 271.069 81.3301C271.069 81.5397 271.001 81.7174 270.864 81.8633C270.732 82.0091 270.538 82.082 270.283 82.082C270.028 82.082 269.832 82.0091 269.695 81.8633C269.563 81.7174 269.497 81.5397 269.497 81.3301Z" fill="black"/>
</svg>
